<?xml version="1.0" standalone="no"?>
<!DOCTYPE svg PUBLIC "-//W3C//DTD SVG 20010904//EN"
 "http://www.w3.org/TR/2001/REC-SVG-20010904/DTD/svg10.dtd">
<svg version="1.0" xmlns="http://www.w3.org/2000/svg"
 width="1084.000000pt" height="1084.000000pt" viewBox="0 0 1084.000000 1084.000000"
 preserveAspectRatio="xMidYMid meet">
<metadata>
Created by potrace 1.11, written by Peter Selinger 2001-2013
</metadata>
<g transform="translate(0.000000,1084.000000) scale(0.100000,-0.100000)"
fill="#000000" stroke="none">
<path d="M2 5423 l3 -5418 2080 0 2080 0 2 418 2 417 -1667 2 -1667 3 0 4573
c0 2516 2 4577 5 4581 3 4 752 7 1665 6 l1660 0 1 418 1 417 -2083 0 -2084 0
2 -5417z"/>
<path d="M6666 10433 c1 -225 2 -413 3 -418 1 -7 560 -10 1664 -10 l1662 0 3
-4582 2 -4583 -1668 0 -1667 0 1 -408 c1 -224 2 -411 3 -417 1 -7 703 -10
2084 -10 l2082 0 0 5418 0 5417 -2085 0 -2085 0 1 -407z"/>
<path d="M5497 7224 c-1 -1 -40 -4 -87 -8 -473 -36 -847 -295 -974 -676 -35
-105 -48 -197 -47 -330 1 -125 4 -160 27 -260 9 -36 17 -73 19 -83 9 -42 87
-186 133 -247 111 -146 249 -245 467 -336 50 -20 214 -78 365 -129 294 -99
362 -127 452 -187 114 -76 164 -168 167 -306 5 -237 -142 -415 -399 -481 -95
-25 -291 -23 -390 3 -181 49 -307 151 -411 331 -29 52 -57 94 -60 95 -4 0
-495 -324 -508 -336 -6 -5 64 -106 124 -179 207 -252 450 -387 810 -450 103
-18 317 -24 430 -12 240 25 461 116 625 256 87 76 112 103 175 196 117 174
166 344 167 575 0 289 -85 499 -275 676 -146 137 -352 237 -677 328 -373 104
-568 208 -637 340 -16 31 -41 111 -41 136 -6 167 5 224 54 306 58 98 160 172
285 208 78 23 109 27 222 30 240 8 400 -76 547 -287 l53 -76 66 47 c37 26 144
103 238 171 l172 123 -61 82 c-182 240 -354 359 -623 431 -93 25 -118 29 -220
40 -54 6 -184 12 -188 9z"/>
</g>
</svg>
