<svg xmlns="http://www.w3.org/2000/svg" viewBox="0 0 54.11 42.69"><defs><style>.cls-1{fill:#c6ac45;}</style></defs><title>close</title><g id="CLOSE"><path class="cls-1" d="M10.36,43.15a5.08,5.08,0,0,1-1.74,1.48A5.43,5.43,0,0,1,6,45.19a6.35,6.35,0,0,1-2.39-.44,5.57,5.57,0,0,1-1.89-1.23A5.66,5.66,0,0,1,.52,41.63a6.68,6.68,0,0,1,0-4.83A5.47,5.47,0,0,1,1.8,34.93a5.73,5.73,0,0,1,1.91-1.21,6.53,6.53,0,0,1,2.4-.43,6.31,6.31,0,0,1,1.17.11,5.78,5.78,0,0,1,1.14.34,4.71,4.71,0,0,1,1,.55,3.61,3.61,0,0,1,.77.76L8.92,36a3.11,3.11,0,0,0-1.18-1,3.65,3.65,0,0,0-1.64-.38A4.28,4.28,0,0,0,4.32,35,4,4,0,0,0,3,36a4.44,4.44,0,0,0-.86,1.45,5,5,0,0,0-.3,1.75A5.3,5.3,0,0,0,2.1,41a4.3,4.3,0,0,0,.85,1.45,3.9,3.9,0,0,0,1.34,1,4.31,4.31,0,0,0,1.77.35A3.91,3.91,0,0,0,7.8,43.4a3.36,3.36,0,0,0,1.3-1.12Z" transform="translate(-0.08 -2.5)"/><path class="cls-1" d="M14.36,43.5h5.06v1.41H12.78V33.58h1.58Z" transform="translate(-0.08 -2.5)"/><path class="cls-1" d="M33.18,39.23a6.21,6.21,0,0,1-.46,2.41,5.57,5.57,0,0,1-3.16,3.12,6.41,6.41,0,0,1-2.4.44,6.35,6.35,0,0,1-2.39-.44,5.55,5.55,0,0,1-3.14-3.12,6.74,6.74,0,0,1,0-4.83,5.43,5.43,0,0,1,1.25-1.87,5.66,5.66,0,0,1,1.9-1.21,6.46,6.46,0,0,1,2.39-.43,6.53,6.53,0,0,1,2.4.43,5.65,5.65,0,0,1,1.9,1.21,5.52,5.52,0,0,1,1.26,1.87A6.25,6.25,0,0,1,33.18,39.23Zm-1.71,0a5,5,0,0,0-.3-1.75A4.44,4.44,0,0,0,30.3,36a4,4,0,0,0-1.35-1,4.57,4.57,0,0,0-3.55,0,4,4,0,0,0-1.34,1,4.52,4.52,0,0,0-.86,1.45,5,5,0,0,0-.3,1.75A5.13,5.13,0,0,0,23.2,41a4.33,4.33,0,0,0,.86,1.45,4,4,0,0,0,1.34,1,4.24,4.24,0,0,0,1.76.35,4.35,4.35,0,0,0,1.78-.35,4,4,0,0,0,1.36-1A4.33,4.33,0,0,0,31.16,41,5.12,5.12,0,0,0,31.47,39.23Z" transform="translate(-0.08 -2.5)"/><path class="cls-1" d="M42.09,35.67a2.54,2.54,0,0,0-.91-.76,2.8,2.8,0,0,0-1.3-.3,3,3,0,0,0-.78.1,2.11,2.11,0,0,0-.71.34,1.84,1.84,0,0,0-.52.58,1.61,1.61,0,0,0-.2.82,1.5,1.5,0,0,0,.18.78,1.68,1.68,0,0,0,.5.53,3.14,3.14,0,0,0,.74.37l.9.31q.58.18,1.17.4a4.23,4.23,0,0,1,1.07.59,2.71,2.71,0,0,1,1.09,2.32A3.34,3.34,0,0,1,43,43.28a3.13,3.13,0,0,1-.87,1.07,3.72,3.72,0,0,1-1.26.63,5.19,5.19,0,0,1-1.46.21,5.35,5.35,0,0,1-2.07-.42,4.11,4.11,0,0,1-1.66-1.23l1.23-1a3.08,3.08,0,0,0,2.53,1.33,3,3,0,0,0,.8-.11,2.26,2.26,0,0,0,.73-.35,2,2,0,0,0,.54-.6,1.73,1.73,0,0,0,.21-.87,1.58,1.58,0,0,0-.22-.86,1.91,1.91,0,0,0-.58-.58,3.86,3.86,0,0,0-.86-.41l-1-.34a9,9,0,0,1-1.07-.39,3.73,3.73,0,0,1-.94-.59,2.73,2.73,0,0,1-.67-.89,3,3,0,0,1-.26-1.31,2.91,2.91,0,0,1,.34-1.46,3.12,3.12,0,0,1,.9-1,3.72,3.72,0,0,1,1.25-.58,5.44,5.44,0,0,1,1.4-.18,4.88,4.88,0,0,1,1.86.35,3.7,3.7,0,0,1,1.39.94Z" transform="translate(-0.08 -2.5)"/><path class="cls-1" d="M48.27,43.5h5.92v1.41h-7.5V33.58h7.26V35H48.27v3.39h5.34v1.36H48.27Z" transform="translate(-0.08 -2.5)"/></g><g id="close-2" data-name="close"><g id="長方形_55" data-name="長方形 55"><rect class="cls-1" x="26.48" y="-1.25" width="2.03" height="30.5" transform="translate(-1.92 21.04) rotate(-45)"/></g><g id="長方形_55-2" data-name="長方形 55"><rect class="cls-1" x="12.25" y="12.98" width="30.5" height="2.03" transform="translate(-1.92 21.05) rotate(-45)"/></g></g></svg>