<?xml version="1.0" encoding="utf-8"?>
<!-- Generator: Adobe Illustrator 21.0.0, SVG Export Plug-In . SVG Version: 6.00 Build 0)  -->
<svg version="1.1" id="レイヤー_1" xmlns="http://www.w3.org/2000/svg" xmlns:xlink="http://www.w3.org/1999/xlink" x="0px"
	 y="0px" viewBox="0 0 320 150" style="enable-background:new 0 0 320 150;" xml:space="preserve">
<style type="text/css">
	.st0{fill:none;}
	.st1{clip-path:url(#SVGID_2_);}
	.st2{fill:none;stroke:#FFFFFF;stroke-width:4.8;}
	.st3{clip-path:url(#SVGID_4_);}
	.st4{fill:#FFFFFF;}
	.st5{clip-path:url(#SVGID_6_);}
	.st6{clip-path:url(#SVGID_8_);}
	.st7{fill:#ECEBE0;}
	.st8{fill:url(#SVGID_13_);}
	.st9{fill:url(#SVGID_14_);}
	.st10{fill:url(#SVGID_15_);}
	.st11{fill:url(#SVGID_16_);}
	.st12{fill:#C9AE49;}
	.st13{fill:#B5B5B1;}
	.st14{display:none;fill:#C9AE49;}
</style>
<pattern  y="150" width="72" height="72" patternUnits="userSpaceOnUse" id="SVGID_10_" viewBox="72.2 -72 72 72" style="overflow:visible;">
	<g>
		<rect x="72.2" y="-72" class="st0" width="72" height="72"/>
		<g>
			<rect x="72.2" y="-72" class="st0" width="72" height="72"/>
			<rect x="72.2" y="-72" class="st0" width="72" height="72"/>
			<g>
				<g>
					<defs>
						<rect id="SVGID_1_" x="72.2" y="-72" width="72" height="72"/>
					</defs>
					<clipPath id="SVGID_2_">
						<use xlink:href="#SVGID_1_"  style="overflow:visible;"/>
					</clipPath>
					<g class="st1">
						<line class="st2" x1="144" y1="-66" x2="216.5" y2="-66"/>
						<line class="st2" x1="144" y1="-42" x2="216.5" y2="-42"/>
						<line class="st2" x1="144" y1="-18" x2="216.5" y2="-18"/>
						<line class="st2" x1="144" y1="-54" x2="216.5" y2="-54"/>
						<line class="st2" x1="144" y1="-30" x2="216.5" y2="-30"/>
						<line class="st2" x1="144" y1="-6" x2="216.5" y2="-6"/>
						<line class="st2" x1="72" y1="-66" x2="144.5" y2="-66"/>
						<line class="st2" x1="72" y1="-42" x2="144.5" y2="-42"/>
						<line class="st2" x1="72" y1="-18" x2="144.5" y2="-18"/>
						<line class="st2" x1="72" y1="-54" x2="144.5" y2="-54"/>
						<line class="st2" x1="72" y1="-30" x2="144.5" y2="-30"/>
						<line class="st2" x1="72" y1="-6" x2="144.5" y2="-6"/>
						<line class="st2" x1="0" y1="-66" x2="72.5" y2="-66"/>
						<line class="st2" x1="0" y1="-42" x2="72.5" y2="-42"/>
						<line class="st2" x1="0" y1="-18" x2="72.5" y2="-18"/>
						<line class="st2" x1="0" y1="-54" x2="72.5" y2="-54"/>
						<line class="st2" x1="0" y1="-30" x2="72.5" y2="-30"/>
						<line class="st2" x1="0" y1="-6" x2="72.5" y2="-6"/>
					</g>
				</g>
			</g>
		</g>
	</g>
</pattern>
<pattern  y="150" width="48" height="48" patternUnits="userSpaceOnUse" id="SVGID_11_" viewBox="6 -54 48 48" style="overflow:visible;">
	<g>
		<rect x="6" y="-54" class="st0" width="48" height="48"/>
		<g>
			<rect x="6" y="-54" class="st0" width="48" height="48"/>
			<rect x="6" y="-54" class="st0" width="48" height="48"/>
			<g>
				<g>
					<defs>
						<rect id="SVGID_3_" x="6" y="-54" width="48" height="48"/>
					</defs>
					<clipPath id="SVGID_4_">
						<use xlink:href="#SVGID_3_"  style="overflow:visible;"/>
					</clipPath>
					<g class="st3">
						<path class="st4" d="M30-60c3.3,0,6,2.7,6,6s-2.7,6-6,6s-6-2.7-6-6S26.7-60,30-60"/>
						<path class="st4" d="M54-60c3.3,0,6,2.7,6,6s-2.7,6-6,6s-6-2.7-6-6S50.7-60,54-60"/>
						<path class="st4" d="M30-36c3.3,0,6,2.7,6,6s-2.7,6-6,6s-6-2.7-6-6S26.7-36,30-36"/>
						<path class="st4" d="M54-36c3.3,0,6,2.7,6,6s-2.7,6-6,6s-6-2.7-6-6S50.7-36,54-36"/>
						<path class="st4" d="M42-48c3.3,0,6,2.7,6,6s-2.7,6-6,6s-6-2.7-6-6S38.7-48,42-48"/>
						<path class="st4" d="M18-48c3.3,0,6,2.7,6,6s-2.7,6-6,6s-6-2.7-6-6S14.7-48,18-48"/>
						<path class="st4" d="M42-24c3.3,0,6,2.7,6,6s-2.7,6-6,6s-6-2.7-6-6S38.7-24,42-24"/>
						<path class="st4" d="M18-24c3.3,0,6,2.7,6,6s-2.7,6-6,6s-6-2.7-6-6S14.7-24,18-24"/>
						<path class="st4" d="M6-60c3.3,0,6,2.7,6,6s-2.7,6-6,6s-6-2.7-6-6S2.7-60,6-60"/>
						<path class="st4" d="M6-36c3.3,0,6,2.7,6,6s-2.7,6-6,6s-6-2.7-6-6S2.7-36,6-36"/>
						<path class="st4" d="M30-12c3.3,0,6,2.7,6,6s-2.7,6-6,6s-6-2.7-6-6S26.7-12,30-12"/>
						<path class="st4" d="M54-12c3.3,0,6,2.7,6,6s-2.7,6-6,6s-6-2.7-6-6S50.7-12,54-12"/>
						<path class="st4" d="M6-12c3.3,0,6,2.7,6,6S9.3,0,6,0S0-2.7,0-6S2.7-12,6-12"/>
					</g>
				</g>
			</g>
		</g>
	</g>
</pattern>
<pattern  y="150" width="48" height="48" patternUnits="userSpaceOnUse" id="SVGID_12_" viewBox="6 -54 48 48" style="overflow:visible;">
	<g>
		<rect x="6" y="-54" class="st0" width="48" height="48"/>
		<g>
			<rect x="6" y="-54" class="st0" width="48" height="48"/>
			<rect x="6" y="-54" class="st0" width="48" height="48"/>
			<g>
				<g>
					<defs>
						<rect id="SVGID_5_" x="6" y="-54" width="48" height="48"/>
					</defs>
					<clipPath id="SVGID_6_">
						<use xlink:href="#SVGID_5_"  style="overflow:visible;"/>
					</clipPath>
					<g class="st5">
						<path class="st4" d="M30-60c3.3,0,6,2.7,6,6s-2.7,6-6,6s-6-2.7-6-6S26.7-60,30-60"/>
						<path class="st4" d="M54-60c3.3,0,6,2.7,6,6s-2.7,6-6,6s-6-2.7-6-6S50.7-60,54-60"/>
						<path class="st4" d="M30-36c3.3,0,6,2.7,6,6s-2.7,6-6,6s-6-2.7-6-6S26.7-36,30-36"/>
						<path class="st4" d="M54-36c3.3,0,6,2.7,6,6s-2.7,6-6,6s-6-2.7-6-6S50.7-36,54-36"/>
						<path class="st4" d="M42-48c3.3,0,6,2.7,6,6s-2.7,6-6,6s-6-2.7-6-6S38.7-48,42-48"/>
						<path class="st4" d="M18-48c3.3,0,6,2.7,6,6s-2.7,6-6,6s-6-2.7-6-6S14.7-48,18-48"/>
						<path class="st4" d="M42-24c3.3,0,6,2.7,6,6s-2.7,6-6,6s-6-2.7-6-6S38.7-24,42-24"/>
						<path class="st4" d="M18-24c3.3,0,6,2.7,6,6s-2.7,6-6,6s-6-2.7-6-6S14.7-24,18-24"/>
						<path class="st4" d="M6-60c3.3,0,6,2.7,6,6s-2.7,6-6,6s-6-2.7-6-6S2.7-60,6-60"/>
						<path class="st4" d="M6-36c3.3,0,6,2.7,6,6s-2.7,6-6,6s-6-2.7-6-6S2.7-36,6-36"/>
						<path class="st4" d="M30-12c3.3,0,6,2.7,6,6s-2.7,6-6,6s-6-2.7-6-6S26.7-12,30-12"/>
						<path class="st4" d="M54-12c3.3,0,6,2.7,6,6s-2.7,6-6,6s-6-2.7-6-6S50.7-12,54-12"/>
						<path class="st4" d="M6-12c3.3,0,6,2.7,6,6S9.3,0,6,0S0-2.7,0-6S2.7-12,6-12"/>
					</g>
				</g>
			</g>
		</g>
	</g>
</pattern>
<pattern  y="150" width="72" height="72" patternUnits="userSpaceOnUse" id="SVGID_9_" viewBox="72.2 -72 72 72" style="overflow:visible;">
	<g>
		<rect x="72.2" y="-72" class="st0" width="72" height="72"/>
		<g>
			<rect x="72.2" y="-72" class="st0" width="72" height="72"/>
			<rect x="72.2" y="-72" class="st0" width="72" height="72"/>
			<g>
				<g>
					<defs>
						<rect id="SVGID_7_" x="72.2" y="-72" width="72" height="72"/>
					</defs>
					<clipPath id="SVGID_8_">
						<use xlink:href="#SVGID_7_"  style="overflow:visible;"/>
					</clipPath>
					<g class="st6">
						<line class="st2" x1="144" y1="-66" x2="216.5" y2="-66"/>
						<line class="st2" x1="144" y1="-42" x2="216.5" y2="-42"/>
						<line class="st2" x1="144" y1="-18" x2="216.5" y2="-18"/>
						<line class="st2" x1="144" y1="-54" x2="216.5" y2="-54"/>
						<line class="st2" x1="144" y1="-30" x2="216.5" y2="-30"/>
						<line class="st2" x1="144" y1="-6" x2="216.5" y2="-6"/>
						<line class="st2" x1="72" y1="-66" x2="144.5" y2="-66"/>
						<line class="st2" x1="72" y1="-42" x2="144.5" y2="-42"/>
						<line class="st2" x1="72" y1="-18" x2="144.5" y2="-18"/>
						<line class="st2" x1="72" y1="-54" x2="144.5" y2="-54"/>
						<line class="st2" x1="72" y1="-30" x2="144.5" y2="-30"/>
						<line class="st2" x1="72" y1="-6" x2="144.5" y2="-6"/>
						<line class="st2" x1="0" y1="-66" x2="72.5" y2="-66"/>
						<line class="st2" x1="0" y1="-42" x2="72.5" y2="-42"/>
						<line class="st2" x1="0" y1="-18" x2="72.5" y2="-18"/>
						<line class="st2" x1="0" y1="-54" x2="72.5" y2="-54"/>
						<line class="st2" x1="0" y1="-30" x2="72.5" y2="-30"/>
						<line class="st2" x1="0" y1="-6" x2="72.5" y2="-6"/>
					</g>
				</g>
			</g>
		</g>
	</g>
</pattern>
<title>ベクトルスマートオブジェクト</title>
<g id="レイヤー_2">
	<polygon id="bg" class="st7" points="0,-0.8 0,149.2 320,114.2 320,-0.8 	"/>
	<g id="レイヤー_6">
		<g id="ベクトルスマートオブジェクト">
			<g>
				<g>
					<polygon class="st4" points="114,102 110,102 110,98 108,98 108,102 104,102 104,104 108,104 108,108 110,108 110,104 114,104 
											"/>
					<polygon class="st4" points="182.5,59.5 178.5,59.5 178.5,55.5 176.5,55.5 176.5,59.5 172.5,59.5 172.5,61.5 176.5,61.5 
						176.5,65.5 178.5,65.5 178.5,61.5 182.5,61.5 					"/>
					<pattern  id="SVGID_13_" xlink:href="#SVGID_9_" patternTransform="matrix(0.18 -0.18 -0.18 -0.18 -10322.5811 -647.3791)">
					</pattern>
					<polygon class="st8" points="192.5,13 185,13 185,5.5 180,5.5 180,13 172.5,13 172.5,18 180,18 180,25.5 185,25.5 185,18 
						192.5,18 					"/>
					<pattern  id="SVGID_14_" xlink:href="#SVGID_10_" patternTransform="matrix(0.18 -0.18 -0.18 -0.18 -10324.9805 -609.6086)">
					</pattern>
					<polygon class="st9" points="101,63.5 93.5,63.5 93.5,56 88.5,56 88.5,63.5 81,63.5 81,68.5 88.5,68.5 88.5,76 93.5,76 
						93.5,68.5 101,68.5 					"/>
					<polygon class="st4" points="291.5,87.5 289.5,87.5 289.5,85.5 288.5,85.5 288.5,87.5 286.5,87.5 286.5,88.5 288.5,88.5 
						288.5,90.5 289.5,90.5 289.5,88.5 291.5,88.5 					"/>
					<polygon class="st4" points="225,82.5 223,82.5 223,80.5 222,80.5 222,82.5 220,82.5 220,83.5 222,83.5 222,85.5 223,85.5 
						223,83.5 225,83.5 					"/>
					<polygon class="st4" points="162.5,87.5 160.5,87.5 160.5,85.5 159.5,85.5 159.5,87.5 157.5,87.5 157.5,88.5 159.5,88.5 
						159.5,90.5 160.5,90.5 160.5,88.5 162.5,88.5 					"/>
					<polygon class="st4" points="117.5,57.5 115.5,57.5 115.5,55.5 114.5,55.5 114.5,57.5 112.5,57.5 112.5,58.5 114.5,58.5 
						114.5,60.5 115.5,60.5 115.5,58.5 117.5,58.5 					"/>
					<polygon class="st4" points="70,53 68,53 68,51 67,51 67,53 65,53 65,54 67,54 67,56 68,56 68,54 70,54 					"/>
					<polygon class="st4" points="306,40.5 304,40.5 304,38.5 303,38.5 303,40.5 301,40.5 301,41.5 303,41.5 303,43.5 304,43.5 
						304,41.5 306,41.5 					"/>
					<polygon class="st4" points="252.5,17.5 250.5,17.5 250.5,15.5 249.5,15.5 249.5,17.5 247.5,17.5 247.5,18.5 249.5,18.5 
						249.5,20.5 250.5,20.5 250.5,18.5 252.5,18.5 					"/>
					<polygon class="st4" points="117.5,22.5 115.5,22.5 115.5,20.5 114.5,20.5 114.5,22.5 112.5,22.5 112.5,23.5 114.5,23.5 
						114.5,25.5 115.5,25.5 115.5,23.5 117.5,23.5 					"/>
					<pattern  id="SVGID_15_" xlink:href="#SVGID_11_" patternTransform="matrix(0.2 0 0 -0.19 -12848.7695 -532.5898)">
					</pattern>
					<polygon class="st10" points="252.5,63.5 243,63.5 243,53.5 235,53.5 235,63.5 225,63.5 225,71 235,71 235,81 243,81 243,71 
						252.5,71 					"/>
					<g>
						<pattern  id="SVGID_16_" xlink:href="#SVGID_12_" patternTransform="matrix(0.2 0 0 -0.19 -12854.0195 -523.7402)">
						</pattern>
						<polygon class="st11" points="43,100 33.5,100 33.5,90 25.5,90 25.5,100 15.5,100 15.5,107.5 25.5,107.5 25.5,117.5 
							33.5,117.5 33.5,107.5 43,107.5 						"/>
					</g>
					<path class="st4" d="M274.3,70.8h-3v-4h-4v-3h4v-4h3v4h4v3h-4V70.8z M272.3,69.8h1v-4h4v-1h-4v-4h-1v4h-4v1h4V69.8z"/>
					<path class="st4" d="M240.3,113.8h-3v-4h-4v-3h4v-4h3v4h4v3h-4V113.8z M238.3,112.8h1v-4h4v-1h-4v-4h-1v4h-4v1h4V112.8z"/>
					<path class="st4" d="M203.7,98.8h-3v-4h-4v-3h4v-4h3v4h4v3h-4V98.8z M201.7,97.8h1v-4h4v-1h-4v-4h-1v4h-4v1h4V97.8z"/>
					<polygon class="st12" points="144,103 142,103 142,101 141,101 141,103 139,103 139,104 141,104 141,106 142,106 142,104 
						144,104 					"/>
					<polygon class="st13" points="169.5,113 167.5,113 167.5,111 166.5,111 166.5,113 164.5,113 164.5,114 166.5,114 166.5,116 
						167.5,116 167.5,114 169.5,114 					"/>
					<polygon class="st13" points="269.5,93 267.5,93 267.5,91 266.5,91 266.5,93 264.5,93 264.5,94 266.5,94 266.5,96 267.5,96 
						267.5,94 269.5,94 					"/>
					<polygon class="st12" points="204,113 202,113 202,111 201,111 201,113 199,113 199,114 201,114 201,116 202,116 202,114 
						204,114 					"/>
					<polygon class="st14" points="308.5,72 306.5,72 306.5,70 305.5,70 305.5,72 303.5,72 303.5,73 305.5,73 305.5,75 306.5,75 
						306.5,73 308.5,73 					"/>
					<polygon class="st12" points="219,38 217,38 217,36 216,36 216,38 214,38 214,39 216,39 216,41 217,41 217,39 219,39 					"/>
					<path class="st4" d="M61.3,128.2h-2v-2h-2v-2h2v-2h2v2h2v2h-2V128.2z M60.3,127.2v-2h2h-4h2V127.2z"/>
					<path class="st12" d="M86.3,128.2h-2v-2h-2v-2h2v-2h2v2h2v2h-2V128.2z M85.3,127.2v-2h2h-4h2V127.2z"/>
					<path class="st12" d="M51.3,88.2h-2v-2h-2v-2h2v-2h2v2h2v2h-2V88.2z M50.3,87.2v-2h2h-4h2V87.2z"/>
					<path class="st12" d="M286.3,23.2h-2v-2h-2v-2h2v-2h2v2h2v2h-2V23.2z M285.3,22.2v-2h2h-4h2V22.2z"/>
					<path class="st12" d="M66.3,23.2h-2v-2h-2v-2h2v-2h2v2h2v2h-2V23.2z M65.3,22.2v-2h2h-4h2V22.2z"/>
					<path class="st4" d="M138.3,80.8h-3v-4h-4v-3h4v-4h3v4h4v3h-4V80.8z M136.3,79.8h1v-4h4v-1h-4v-4h-1v4h-4v1h4V79.8z"/>
					<path class="st4" d="M76.7,94.8h-3v-4h-4v-3h4v-4h3v4h4v3h-4V94.8z M74.7,93.8h1v-4h4v-1h-4v-4h-1v4h-4v1h4V93.8z"/>
					<path class="st4" d="M22.3,66.2h-3v-4h-4v-3h4v-4h3v4h4v3h-4V66.2z M20.3,65.2h1v-4h4v-1h-4v-4h-1v4h-4v1h4V65.2z"/>
					<path class="st12" d="M147.3,36.2h-3v-4h-4v-3h4v-4h3v4h4v3h-4V36.2z M145.3,35.2h1v-4h4v-1h-4v-4h-1v4h-4v1h4V35.2z"/>
				</g>
			</g>
		</g>
	</g>
</g>
</svg>
