<svg id="レイヤー_1" data-name="レイヤー 1" xmlns="http://www.w3.org/2000/svg" viewBox="0 0 106.82 43.85"><defs><style>.cls-1{fill:#c6ac45;}.cls-2{fill:none;stroke:#c6ac45;stroke-miterlimit:10;opacity:0.4;}</style></defs><title>blog_logo</title><path class="cls-1" d="M32.39,28.64a5.56,5.56,0,0,1-2.14-.41,4,4,0,0,1-1.71-1.4l-.17-.23,1.48-1,.15.26a2.41,2.41,0,0,0,1,.95,2.87,2.87,0,0,0,1.36.31A2.69,2.69,0,0,0,33.2,27a2.23,2.23,0,0,0,.71-.39,1.8,1.8,0,0,0,.46-.59,1.77,1.77,0,0,0,.17-.78,1.49,1.49,0,0,0-.2-.81,1.7,1.7,0,0,0-.56-.53,4.51,4.51,0,0,0-.87-.39l-1.05-.35q-.56-.18-1.08-.4a3.83,3.83,0,0,1-1-.62,2.87,2.87,0,0,1-.73-1,3.46,3.46,0,0,1-.27-1.44,3.15,3.15,0,0,1,.32-1.44A3.11,3.11,0,0,1,30,17.2a3.8,3.8,0,0,1,1.23-.63,4.93,4.93,0,0,1,1.44-.21,4.68,4.68,0,0,1,1.8.34,3.51,3.51,0,0,1,1.46,1.17l.17.23-1.36,1-.16-.23a2.38,2.38,0,0,0-.82-.74,2.42,2.42,0,0,0-1.12-.24,3.16,3.16,0,0,0-.88.12,2.12,2.12,0,0,0-.7.35,1.66,1.66,0,0,0-.47.56,1.73,1.73,0,0,0-.17.8,1.54,1.54,0,0,0,.35,1.09,2.73,2.73,0,0,0,1,.64,11,11,0,0,0,1.35.45,7.07,7.07,0,0,1,1.44.55,3.3,3.3,0,0,1,1.16,1,3,3,0,0,1,.48,1.79,3.32,3.32,0,0,1-.31,1.46A3.26,3.26,0,0,1,35,27.77a3.61,3.61,0,0,1-1.2.66A4.54,4.54,0,0,1,32.39,28.64Z" transform="translate(-28.37 -0.58)"/><path class="cls-1" d="M32.39,28.55a5.46,5.46,0,0,1-2.1-.4,3.92,3.92,0,0,1-1.67-1.36l-.11-.16,1.32-.88.1.17a2.49,2.49,0,0,0,1,1,3,3,0,0,0,1.4.32,2.79,2.79,0,0,0,.92-.15,2.33,2.33,0,0,0,.74-.41,1.9,1.9,0,0,0,.49-.62,1.86,1.86,0,0,0,.18-.82,1.58,1.58,0,0,0-.21-.86,1.79,1.79,0,0,0-.59-.56,4.59,4.59,0,0,0-.89-.4l-1.05-.35q-.55-.18-1.07-.4a3.75,3.75,0,0,1-1-.6,2.77,2.77,0,0,1-.7-1,3.38,3.38,0,0,1-.26-1.4,3.06,3.06,0,0,1,.31-1.4,3,3,0,0,1,.84-1,3.7,3.7,0,0,1,1.2-.61,4.83,4.83,0,0,1,1.41-.21,4.59,4.59,0,0,1,1.76.34,3.42,3.42,0,0,1,1.43,1.14l.11.15-1.2.87-.11-.15a2.47,2.47,0,0,0-.86-.77,2.51,2.51,0,0,0-1.17-.25,3.24,3.24,0,0,0-.91.13,2.22,2.22,0,0,0-.73.36,1.76,1.76,0,0,0-.49.59,1.82,1.82,0,0,0-.18.84,1.63,1.63,0,0,0,.37,1.16,2.82,2.82,0,0,0,1,.67A11.11,11.11,0,0,0,33,22a7,7,0,0,1,1.43.54,3.2,3.2,0,0,1,1.13,1A2.93,2.93,0,0,1,36,25.23a3.23,3.23,0,0,1-.3,1.42,3.16,3.16,0,0,1-.81,1,3.52,3.52,0,0,1-1.17.64A4.45,4.45,0,0,1,32.39,28.55Z" transform="translate(-28.37 -0.58)"/><path class="cls-1" d="M32.39,28.46a5.38,5.38,0,0,1-2.07-.39,3.83,3.83,0,0,1-1.63-1.33l-.06-.08,1.16-.77,0,.09a2.59,2.59,0,0,0,1,1,3.06,3.06,0,0,0,1.45.34,2.9,2.9,0,0,0,.95-.15,2.42,2.42,0,0,0,.77-.43,2,2,0,0,0,.51-.65,2,2,0,0,0,.19-.87,1.67,1.67,0,0,0-.23-.91,1.88,1.88,0,0,0-.62-.59,4.7,4.7,0,0,0-.9-.41L31.92,23q-.55-.18-1.06-.4A3.65,3.65,0,0,1,29.9,22a2.67,2.67,0,0,1-.68-.92A3.29,3.29,0,0,1,29,19.69a3,3,0,0,1,.3-1.36,2.92,2.92,0,0,1,.81-1,3.62,3.62,0,0,1,1.17-.6,4.74,4.74,0,0,1,1.38-.2,4.49,4.49,0,0,1,1.73.33A3.33,3.33,0,0,1,35.76,18l.06.08-1.05.76-.05-.08a2.56,2.56,0,0,0-.89-.8,2.6,2.6,0,0,0-1.21-.26,3.33,3.33,0,0,0-.94.13,2.3,2.3,0,0,0-.76.38,1.85,1.85,0,0,0-.52.62,1.91,1.91,0,0,0-.19.89,1.72,1.72,0,0,0,.4,1.22,2.92,2.92,0,0,0,1,.69,11.14,11.14,0,0,0,1.38.45,6.87,6.87,0,0,1,1.41.54,3.11,3.11,0,0,1,1.1,1A2.85,2.85,0,0,1,36,25.23a3.13,3.13,0,0,1-.29,1.38,3.08,3.08,0,0,1-.79,1,3.42,3.42,0,0,1-1.14.62A4.31,4.31,0,0,1,32.39,28.46Z" transform="translate(-28.37 -0.58)"/><path class="cls-1" d="M29.76,26a2.66,2.66,0,0,0,1.06,1.06,3.12,3.12,0,0,0,1.49.35,3,3,0,0,0,1-.16,2.49,2.49,0,0,0,.8-.44,2.07,2.07,0,0,0,.54-.69,2,2,0,0,0,.2-.91,1.74,1.74,0,0,0-.24-1,2,2,0,0,0-.65-.62,4.79,4.79,0,0,0-.92-.42l-1.06-.35q-.54-.17-1.06-.39a3.55,3.55,0,0,1-.92-.58,2.57,2.57,0,0,1-.65-.89,3.18,3.18,0,0,1-.24-1.32,2.87,2.87,0,0,1,.29-1.32,2.81,2.81,0,0,1,.79-1,3.5,3.5,0,0,1,1.14-.58,4.61,4.61,0,0,1,1.36-.2,4.38,4.38,0,0,1,1.69.32A3.22,3.22,0,0,1,35.69,18l-.9.65a2.64,2.64,0,0,0-.92-.83,2.67,2.67,0,0,0-1.25-.28,3.42,3.42,0,0,0-1,.13,2.4,2.4,0,0,0-.8.39,1.94,1.94,0,0,0-.54.65,2,2,0,0,0-.2.93A1.79,1.79,0,0,0,30.53,21a3,3,0,0,0,1.06.71,11.17,11.17,0,0,0,1.39.46,6.73,6.73,0,0,1,1.39.53,3,3,0,0,1,1.06.92,2.75,2.75,0,0,1,.43,1.63,3,3,0,0,1-.28,1.34,3,3,0,0,1-.76,1,3.3,3.3,0,0,1-1.11.61,4.21,4.21,0,0,1-1.31.2,5.25,5.25,0,0,1-2-.39,3.72,3.72,0,0,1-1.59-1.3Z" transform="translate(-28.37 -0.58)"/><path class="cls-1" d="M51.08,24.87c0,.21,0,.47,0,.77s0,.61,0,.92,0,.6,0,.87,0,.48,0,.62H49.74c0-.42,0-.83,0-1.22a3.9,3.9,0,0,0-.06-.76h-.07a4,4,0,0,1-1.47,1.6,4.28,4.28,0,0,1-2.4.67,4.91,4.91,0,0,1-2.17-.42,3.45,3.45,0,0,1-1.32-1.09,4,4,0,0,1-.65-1.55,9.44,9.44,0,0,1-.17-1.81V16.75h1.47V23.4A7.14,7.14,0,0,0,43,24.74a3.53,3.53,0,0,0,.43,1.16,2.24,2.24,0,0,0,.86.82A2.93,2.93,0,0,0,45.7,27a4.17,4.17,0,0,0,1.53-.28,3.28,3.28,0,0,0,1.25-.86,4.16,4.16,0,0,0,.83-1.45,6.16,6.16,0,0,0,.31-2V16.75h1.47Z" transform="translate(-28.37 -0.58)"/><path class="cls-1" d="M56.89,20.22q0-.32,0-.77c0-.3,0-.61,0-.92s0-.6,0-.87,0-.48,0-.62h1.47c0,.42,0,.83,0,1.22a3.8,3.8,0,0,0,.06.76h.07a4,4,0,0,1,1.47-1.6,4.29,4.29,0,0,1,2.4-.67,3.84,3.84,0,0,1,2.06.57,3.27,3.27,0,0,1,1.35,1.87,3.66,3.66,0,0,1,1.6-1.86,4.56,4.56,0,0,1,2.24-.59,4.83,4.83,0,0,1,2.15.42A3.49,3.49,0,0,1,73,18.25a4.1,4.1,0,0,1,.66,1.55,8.83,8.83,0,0,1,.18,1.81v6.73H72.36V21.69a7.19,7.19,0,0,0-.12-1.33,3.55,3.55,0,0,0-.43-1.16,2.24,2.24,0,0,0-.86-.82,2.93,2.93,0,0,0-1.43-.31,3.36,3.36,0,0,0-1.69.38,3,3,0,0,0-1,1,4,4,0,0,0-.54,1.27,5.76,5.76,0,0,0-.16,1.3v6.36H64.62v-6.8A4.85,4.85,0,0,0,64,19a1.93,1.93,0,0,0-1.77-1,4.17,4.17,0,0,0-1.53.28,3.28,3.28,0,0,0-1.25.86,4.15,4.15,0,0,0-.83,1.44,6.15,6.15,0,0,0-.31,2v5.65H56.89Z" transform="translate(-28.37 -0.58)"/><path class="cls-1" d="M79.51,20.22q0-.32,0-.77c0-.3,0-.61,0-.92s0-.6,0-.87,0-.48,0-.62h1.47c0,.42,0,.83,0,1.22A3.8,3.8,0,0,0,81,19H81a4,4,0,0,1,1.47-1.6,4.29,4.29,0,0,1,2.4-.67,3.84,3.84,0,0,1,2.06.57,3.27,3.27,0,0,1,1.35,1.87,3.66,3.66,0,0,1,1.6-1.86,4.57,4.57,0,0,1,2.24-.59,4.83,4.83,0,0,1,2.15.42,3.47,3.47,0,0,1,1.31,1.09,4.11,4.11,0,0,1,.66,1.55,8.91,8.91,0,0,1,.18,1.81v6.73H95V21.69a7.19,7.19,0,0,0-.12-1.33,3.52,3.52,0,0,0-.43-1.16,2.25,2.25,0,0,0-.86-.82,2.93,2.93,0,0,0-1.43-.31,3.36,3.36,0,0,0-1.69.38,3,3,0,0,0-1,1,4,4,0,0,0-.54,1.27,5.73,5.73,0,0,0-.16,1.3v6.36H87.25v-6.8A4.86,4.86,0,0,0,86.67,19a1.93,1.93,0,0,0-1.78-1,4.17,4.17,0,0,0-1.53.28,3.28,3.28,0,0,0-1.25.86,4.15,4.15,0,0,0-.83,1.44,6.15,6.15,0,0,0-.31,2v5.65H79.51Z" transform="translate(-28.37 -0.58)"/><path class="cls-1" d="M111.32,23.31q0,.83,0,1.49c0,.44,0,.85,0,1.22s0,.73.06,1.05.06.65.11,1h-1.37a10.59,10.59,0,0,1-.15-1.84h0a4.13,4.13,0,0,1-1.58,1.61,4.94,4.94,0,0,1-2.39.52,5.78,5.78,0,0,1-1.44-.18,3.78,3.78,0,0,1-1.27-.59A3,3,0,0,1,102,25a3,3,0,0,1,.66-2.06,4.13,4.13,0,0,1,1.63-1.14,7.73,7.73,0,0,1,2.06-.49q1.09-.11,1.92-.11H110v-.68a2.39,2.39,0,0,0-.91-2.11,3.87,3.87,0,0,0-2.28-.64A5.16,5.16,0,0,0,103.36,19l-.86-1a5.22,5.22,0,0,1,2-1.19,7.2,7.2,0,0,1,2.3-.4,5.15,5.15,0,0,1,3.28,1,3.74,3.74,0,0,1,1.22,3.12Zm-2.94-.93a12.89,12.89,0,0,0-1.8.12,6.33,6.33,0,0,0-1.57.42,2.92,2.92,0,0,0-1.11.78,1.82,1.82,0,0,0-.42,1.22,1.8,1.8,0,0,0,.23.92,2,2,0,0,0,.6.66,2.81,2.81,0,0,0,.82.39,3.19,3.19,0,0,0,.92.13,4.73,4.73,0,0,0,1.93-.34,3.29,3.29,0,0,0,1.21-.89,3.11,3.11,0,0,0,.62-1.25,5.94,5.94,0,0,0,.17-1.41v-.76Z" transform="translate(-28.37 -0.58)"/><path class="cls-1" d="M117.22,20.22c0-.21,0-.47,0-.77s0-.61,0-.92,0-.6,0-.87,0-.48,0-.62h1.47c0,.42,0,.83,0,1.22a3.81,3.81,0,0,0,.06.76,5,5,0,0,1,1.45-1.64,3.57,3.57,0,0,1,2.15-.64,2.41,2.41,0,0,1,.43,0l.43.09L123,18.31a1.78,1.78,0,0,0-.56-.1,4.11,4.11,0,0,0-1.65.31,3.11,3.11,0,0,0-1.15.84,3.54,3.54,0,0,0-.67,1.26,5.31,5.31,0,0,0-.22,1.55v6.17h-1.47Z" transform="translate(-28.37 -0.58)"/><path class="cls-1" d="M129.07,28.55a3,3,0,0,1-.51,0l-.48-.11-.16,0,.14-1.3.23.07.41.12a1.58,1.58,0,0,0,.39,0,.71.71,0,0,0,.36-.09,1,1,0,0,0,.29-.24,1.75,1.75,0,0,0,.22-.35c.06-.14.12-.28.17-.42l.64-1.64L127.69,17h1.5l2.3,5.85L133.74,17h1.45l-3.9,9.92a3,3,0,0,1-.81,1.21A2.09,2.09,0,0,1,129.07,28.55Z" transform="translate(-28.37 -0.58)"/><path class="cls-1" d="M51.08,24.87c0,.21,0,.47,0,.77s0,.61,0,.92,0,.6,0,.87,0,.48,0,.62H49.74c0-.42,0-.83,0-1.22a3.9,3.9,0,0,0-.06-.76h-.07a4,4,0,0,1-1.47,1.6,4.28,4.28,0,0,1-2.4.67,4.91,4.91,0,0,1-2.17-.42,3.45,3.45,0,0,1-1.32-1.09,4,4,0,0,1-.65-1.55,9.44,9.44,0,0,1-.17-1.81V16.75h1.47V23.4A7.14,7.14,0,0,0,43,24.74a3.53,3.53,0,0,0,.43,1.16,2.24,2.24,0,0,0,.86.82A2.93,2.93,0,0,0,45.7,27a4.17,4.17,0,0,0,1.53-.28,3.28,3.28,0,0,0,1.25-.86,4.16,4.16,0,0,0,.83-1.45,6.16,6.16,0,0,0,.31-2V16.75h1.47Z" transform="translate(-28.37 -0.58)"/><path class="cls-1" d="M56.89,20.22q0-.32,0-.77c0-.3,0-.61,0-.92s0-.6,0-.87,0-.48,0-.62h1.47c0,.42,0,.83,0,1.22a3.8,3.8,0,0,0,.06.76h.07a4,4,0,0,1,1.47-1.6,4.29,4.29,0,0,1,2.4-.67,3.84,3.84,0,0,1,2.06.57,3.27,3.27,0,0,1,1.35,1.87,3.66,3.66,0,0,1,1.6-1.86,4.56,4.56,0,0,1,2.24-.59,4.83,4.83,0,0,1,2.15.42A3.49,3.49,0,0,1,73,18.25a4.1,4.1,0,0,1,.66,1.55,8.83,8.83,0,0,1,.18,1.81v6.73H72.36V21.69a7.19,7.19,0,0,0-.12-1.33,3.55,3.55,0,0,0-.43-1.16,2.24,2.24,0,0,0-.86-.82,2.93,2.93,0,0,0-1.43-.31,3.36,3.36,0,0,0-1.69.38,3,3,0,0,0-1,1,4,4,0,0,0-.54,1.27,5.76,5.76,0,0,0-.16,1.3v6.36H64.62v-6.8A4.85,4.85,0,0,0,64,19a1.93,1.93,0,0,0-1.77-1,4.17,4.17,0,0,0-1.53.28,3.28,3.28,0,0,0-1.25.86,4.15,4.15,0,0,0-.83,1.44,6.15,6.15,0,0,0-.31,2v5.65H56.89Z" transform="translate(-28.37 -0.58)"/><path class="cls-1" d="M79.51,20.22q0-.32,0-.77c0-.3,0-.61,0-.92s0-.6,0-.87,0-.48,0-.62h1.47c0,.42,0,.83,0,1.22A3.8,3.8,0,0,0,81,19H81a4,4,0,0,1,1.47-1.6,4.29,4.29,0,0,1,2.4-.67,3.84,3.84,0,0,1,2.06.57,3.27,3.27,0,0,1,1.35,1.87,3.66,3.66,0,0,1,1.6-1.86,4.57,4.57,0,0,1,2.24-.59,4.83,4.83,0,0,1,2.15.42,3.47,3.47,0,0,1,1.31,1.09,4.11,4.11,0,0,1,.66,1.55,8.91,8.91,0,0,1,.18,1.81v6.73H95V21.69a7.19,7.19,0,0,0-.12-1.33,3.52,3.52,0,0,0-.43-1.16,2.25,2.25,0,0,0-.86-.82,2.93,2.93,0,0,0-1.43-.31,3.36,3.36,0,0,0-1.69.38,3,3,0,0,0-1,1,4,4,0,0,0-.54,1.27,5.73,5.73,0,0,0-.16,1.3v6.36H87.25v-6.8A4.86,4.86,0,0,0,86.67,19a1.93,1.93,0,0,0-1.78-1,4.17,4.17,0,0,0-1.53.28,3.28,3.28,0,0,0-1.25.86,4.15,4.15,0,0,0-.83,1.44,6.15,6.15,0,0,0-.31,2v5.65H79.51Z" transform="translate(-28.37 -0.58)"/><path class="cls-1" d="M111.32,23.31q0,.83,0,1.49c0,.44,0,.85,0,1.22s0,.73.06,1.05.06.65.11,1h-1.37a10.59,10.59,0,0,1-.15-1.84h0a4.13,4.13,0,0,1-1.58,1.61,4.94,4.94,0,0,1-2.39.52,5.78,5.78,0,0,1-1.44-.18,3.78,3.78,0,0,1-1.27-.59A3,3,0,0,1,102,25a3,3,0,0,1,.66-2.06,4.13,4.13,0,0,1,1.63-1.14,7.73,7.73,0,0,1,2.06-.49q1.09-.11,1.92-.11H110v-.68a2.39,2.39,0,0,0-.91-2.11,3.87,3.87,0,0,0-2.28-.64A5.16,5.16,0,0,0,103.36,19l-.86-1a5.22,5.22,0,0,1,2-1.19,7.2,7.2,0,0,1,2.3-.4,5.15,5.15,0,0,1,3.28,1,3.74,3.74,0,0,1,1.22,3.12Zm-2.94-.93a12.89,12.89,0,0,0-1.8.12,6.33,6.33,0,0,0-1.57.42,2.92,2.92,0,0,0-1.11.78,1.82,1.82,0,0,0-.42,1.22,1.8,1.8,0,0,0,.23.92,2,2,0,0,0,.6.66,2.81,2.81,0,0,0,.82.39,3.19,3.19,0,0,0,.92.13,4.73,4.73,0,0,0,1.93-.34,3.29,3.29,0,0,0,1.21-.89,3.11,3.11,0,0,0,.62-1.25,5.94,5.94,0,0,0,.17-1.41v-.76Z" transform="translate(-28.37 -0.58)"/><path class="cls-1" d="M117.22,20.22c0-.21,0-.47,0-.77s0-.61,0-.92,0-.6,0-.87,0-.48,0-.62h1.47c0,.42,0,.83,0,1.22a3.81,3.81,0,0,0,.06.76,5,5,0,0,1,1.45-1.64,3.57,3.57,0,0,1,2.15-.64,2.41,2.41,0,0,1,.43,0l.43.09L123,18.31a1.78,1.78,0,0,0-.56-.1,4.11,4.11,0,0,0-1.65.31,3.11,3.11,0,0,0-1.15.84,3.54,3.54,0,0,0-.67,1.26,5.31,5.31,0,0,0-.22,1.55v6.17h-1.47Z" transform="translate(-28.37 -0.58)"/><path class="cls-1" d="M129.07,28.55a3,3,0,0,1-.51,0l-.48-.11-.16,0,.14-1.3.23.07.41.12a1.58,1.58,0,0,0,.39,0,.71.71,0,0,0,.36-.09,1,1,0,0,0,.29-.24,1.75,1.75,0,0,0,.22-.35c.06-.14.12-.28.17-.42l.64-1.64L127.69,17h1.5l2.3,5.85L133.74,17h1.45l-3.9,9.92a3,3,0,0,1-.81,1.21A2.09,2.09,0,0,1,129.07,28.55Z" transform="translate(-28.37 -0.58)"/><polyline class="cls-2" points="62.84 11.92 51.63 0.71 40.41 11.92"/><polyline class="cls-2" points="40.41 31.92 51.63 43.14 62.84 31.92"/></svg>