<?xml version="1.0" encoding="utf-8"?>
<svg xmlns="http://www.w3.org/2000/svg"
	xmlns:xlink="http://www.w3.org/1999/xlink"
	width="25px" height="14px" viewBox="0 0 25 14">
<path fillRule="evenodd" d="M 23.58 0.01C 23.58 0.01 25 1.42 25 1.42 25 1.42 12.5 14 12.5 14 12.5 14 11.08 12.59 11.08 12.59 11.08 12.59 23.58 0.01 23.58 0.01M 13.92 12.59C 13.92 12.59 12.5 14 12.5 14 12.5 14-0 1.42-0 1.42-0 1.42 1.42 0.01 1.42 0.01 1.42 0.01 13.92 12.59 13.92 12.59M 12.5 14C 12.5 14 13.92 12.59 13.92 12.59 13.92 12.59 12.5 14 12.5 14 12.5 14 12.5 14 12.5 14ZM 12.5 14C 12.5 14 11.08 12.59 11.08 12.59 11.08 12.59 12.5 14 12.5 14 12.5 14 12.5 14 12.5 14Z" fill="rgb(35,35,35)"/></svg>